<?xml version="1.0"?>
<svg width="27" height="22.999999999999996" xmlns="http://www.w3.org/2000/svg" xmlns:svg="http://www.w3.org/2000/svg">
 <g>
  <title>Layer 1</title>
  <path fill="#b5b5b5" d="m7.285,7.486l-2.829,2.829l7.783,7.783l13.931999,-13.932l-2.827999,-2.829l-11.104,11.102l-4.954,-4.953z" id="svg_1"/>
  <path fill="#b5b5b5" d="m21,20c0,0.542 -0.458,1 -1,1l-17,0c-0.542,0 -1,-0.458 -1,-1l0,-17c0,-0.542 0.458,-1 1,-1l16.908001,0l1.584999,-1.585a2.96,2.96 0 0 0 -1.493,-0.415l-17,0c-1.65,0 -3,1.35 -3,3l0,17c0,1.65 1.35,3 3,3l17,0c1.65,0 3,-1.35 3,-3l0,-9.829l-2,2l0,7.829z" id="svg_2"/>
 </g>
</svg>